<svg xmlns="http://www.w3.org/2000/svg" xmlns:xlink="http://www.w3.org/1999/xlink" width="128" zoomAndPan="magnify" viewBox="0 0 96 95.999999" height="128" preserveAspectRatio="xMidYMid meet" version="1.0"><path fill="#ffffff" d="M 48 96 C 21.53125 96 0 74.46875 0 48 C 0 21.53125 21.53125 0 48 0 C 74.46875 0 96 21.53125 96 48 C 96 74.46875 74.46875 96 48 96 " fill-opacity="1" fill-rule="nonzero"/><path fill="#000000" d="M 49 0.746094 C 23.492188 0.746094 2.746094 21.496094 2.746094 47 C 2.746094 72.503906 23.492188 93.253906 49 93.253906 C 74.503906 93.253906 95.253906 72.503906 95.253906 47 C 95.253906 21.496094 74.503906 0.746094 49 0.746094 " fill-opacity="1" fill-rule="nonzero"/><path fill="#ffffff" d="M 44.769531 70.355469 L 44.769531 72.78125 L 53.15625 72.78125 L 53.15625 70.355469 L 44.769531 70.355469 " fill-opacity="1" fill-rule="nonzero"/><path fill="#ffffff" d="M 49 88.167969 C 26.269531 88.167969 7.832031 69.730469 7.832031 47 C 7.832031 24.269531 26.269531 5.835938 49 5.835938 C 71.730469 5.835938 90.164062 24.269531 90.164062 47 C 90.164062 69.730469 71.730469 88.167969 49 88.167969 Z M 49 3.363281 C 24.9375 3.363281 5.363281 22.9375 5.363281 47 C 5.363281 71.0625 24.9375 90.636719 49 90.636719 C 73.0625 90.636719 92.636719 71.0625 92.636719 47 C 92.636719 22.9375 73.0625 3.363281 49 3.363281 " fill-opacity="1" fill-rule="nonzero"/><path fill="#ffffff" d="M 55.582031 74.027344 C 55.511719 74.652344 55.027344 75.207031 54.335938 75.207031 L 43.523438 75.207031 C 42.902344 75.136719 42.34375 74.652344 42.34375 73.960938 L 42.34375 69.109375 C 42.414062 68.484375 42.902344 67.929688 43.59375 67.929688 L 54.40625 67.929688 C 55.097656 67.929688 55.652344 68.484375 55.582031 69.179688 Z M 32.644531 65.089844 L 27.929688 69.800781 C 39.78125 80.820312 58.214844 80.820312 70.136719 69.800781 L 65.425781 65.089844 L 32.644531 65.089844 " fill-opacity="1" fill-rule="nonzero"/><path fill="#ffffff" d="M 74.085938 45.753906 L 74.085938 45.683594 L 80.046875 45.683594 C 79.769531 38.335938 76.859375 31.269531 71.800781 25.863281 L 67.574219 30.089844 C 71.523438 34.386719 73.808594 39.929688 74.085938 45.753906 " fill-opacity="1" fill-rule="nonzero"/><path fill="#ffffff" d="M 47.820312 21.910156 L 47.75 21.910156 L 47.75 15.953125 C 40.40625 16.230469 33.335938 19.140625 27.929688 24.199219 L 32.160156 28.425781 C 36.453125 24.476562 42 22.191406 47.820312 21.910156 " fill-opacity="1" fill-rule="nonzero"/><path fill="#ffffff" d="M 69.996094 24.199219 C 64.59375 19.140625 57.59375 16.230469 50.175781 15.953125 L 50.175781 21.910156 C 56 22.191406 61.542969 24.476562 65.839844 28.425781 L 69.996094 24.199219 " fill-opacity="1" fill-rule="nonzero"/><path fill="#ffffff" d="M 30.425781 30.160156 L 26.199219 25.933594 C 21.207031 31.335938 18.296875 38.40625 17.949219 45.820312 L 23.910156 45.820312 C 24.1875 40 26.476562 34.457031 30.425781 30.160156 " fill-opacity="1" fill-rule="nonzero"/><path fill="#ffffff" d="M 49 80.472656 C 30.496094 80.472656 15.527344 65.503906 15.527344 47 C 15.527344 28.496094 30.496094 13.527344 49 13.527344 C 67.503906 13.527344 82.472656 28.496094 82.472656 47 C 82.472656 65.503906 67.503906 80.472656 49 80.472656 Z M 49 8.257812 C 27.585938 8.257812 10.257812 25.585938 10.257812 47 C 10.257812 68.414062 27.585938 85.742188 49 85.742188 C 70.414062 85.742188 87.738281 68.414062 87.738281 47 C 87.738281 25.585938 70.414062 8.257812 49 8.257812 " fill-opacity="1" fill-rule="nonzero"/><path fill="#ffffff" d="M 49 43.882812 C 47.265625 43.882812 45.878906 45.269531 45.878906 47 C 45.878906 48.734375 47.265625 50.117188 49 50.117188 C 50.730469 50.117188 52.117188 48.734375 52.117188 47 C 52.117188 45.269531 50.730469 43.882812 49 43.882812 " fill-opacity="1" fill-rule="nonzero"/><path fill="#ffffff" d="M 63.761719 60.167969 C 63.761719 60.859375 63.207031 61.414062 62.511719 61.414062 C 61.820312 61.414062 61.265625 60.859375 61.265625 60.167969 L 61.265625 58.644531 L 59.601562 58.644531 L 59.601562 60.167969 C 59.601562 60.859375 59.046875 61.414062 58.355469 61.414062 C 57.660156 61.414062 57.109375 60.859375 57.109375 60.167969 L 57.109375 54.625 C 57.109375 53.929688 57.660156 53.375 58.355469 53.375 C 59.046875 53.375 59.601562 53.929688 59.601562 54.625 L 59.601562 56.148438 L 61.265625 56.148438 L 61.265625 54.625 C 61.265625 53.929688 61.820312 53.375 62.511719 53.375 C 63.207031 53.375 63.761719 53.929688 63.761719 54.625 Z M 55.929688 54.277344 L 51.632812 61.484375 C 51.425781 61.902344 51.007812 62.109375 50.59375 62.109375 C 50.386719 62.109375 50.175781 62.109375 49.96875 61.96875 C 49.414062 61.625 49.207031 60.859375 49.550781 60.308594 L 53.851562 53.03125 C 54.195312 52.476562 54.960938 52.265625 55.511719 52.613281 C 56.070312 52.960938 56.277344 53.722656 55.929688 54.277344 Z M 46.019531 51.710938 C 43.386719 50.050781 42.621094 46.652344 44.285156 44.019531 C 45.949219 41.386719 49.34375 40.625 51.976562 42.289062 L 60.085938 34.179688 C 60.574219 33.761719 61.335938 33.695312 61.820312 34.179688 C 62.304688 34.664062 62.304688 35.425781 61.820312 35.910156 L 53.710938 44.019531 C 54.890625 45.820312 54.890625 48.179688 53.710938 49.980469 C 52.046875 52.613281 48.652344 53.375 46.019531 51.710938 Z M 48.722656 60.03125 C 48.722656 60.722656 48.167969 61.277344 47.472656 61.277344 C 46.78125 61.277344 46.226562 60.722656 46.226562 60.03125 L 46.226562 58.089844 L 46.15625 58.226562 C 45.671875 58.78125 44.703125 58.78125 44.21875 58.226562 L 44.148438 58.089844 L 44.148438 60.097656 C 44.148438 60.792969 43.59375 61.347656 42.902344 61.347656 C 42.207031 61.347656 41.652344 60.792969 41.652344 60.097656 L 41.652344 54.625 C 41.652344 54.070312 42 53.585938 42.484375 53.445312 C 42.96875 53.308594 43.453125 53.445312 43.800781 53.859375 L 45.117188 55.523438 L 46.433594 53.859375 C 46.710938 53.445312 47.265625 53.308594 47.75 53.445312 C 48.238281 53.585938 48.582031 54.070312 48.722656 54.554688 Z M 40.613281 59.476562 C 40.960938 60.097656 40.75 60.792969 40.128906 61.136719 C 39.988281 61.207031 39.78125 61.277344 39.574219 61.277344 C 39.15625 61.277344 38.742188 61.070312 38.535156 60.652344 L 37.425781 58.574219 L 36.664062 58.574219 L 36.664062 60.097656 C 36.664062 60.792969 36.109375 61.347656 35.414062 61.347656 C 34.722656 61.347656 34.167969 60.792969 34.167969 60.097656 L 34.167969 54.554688 C 34.167969 53.859375 34.722656 53.308594 35.414062 53.308594 C 36.109375 53.308594 36.664062 53.859375 36.664062 54.554688 L 36.664062 56.078125 L 37.425781 56.078125 L 38.535156 54 C 38.878906 53.445312 39.574219 53.167969 40.195312 53.515625 C 40.820312 53.792969 41.027344 54.554688 40.613281 55.175781 L 39.4375 57.328125 Z M 71.660156 47.070312 C 71.660156 34.527344 61.542969 24.40625 49 24.40625 C 36.453125 24.40625 26.335938 34.527344 26.335938 47.070312 C 26.269531 47.691406 25.78125 48.246094 25.089844 48.246094 L 17.949219 48.246094 C 18.226562 55.59375 21.136719 62.664062 26.199219 68.070312 L 31.257812 63.007812 C 31.464844 62.800781 31.742188 62.664062 32.089844 62.664062 L 65.910156 62.664062 C 66.183594 62.664062 66.53125 62.800781 66.742188 63.007812 L 71.800781 68.070312 C 76.789062 62.664062 79.699219 55.59375 79.980469 48.316406 L 72.839844 48.316406 C 72.214844 48.246094 71.660156 47.761719 71.660156 47.070312 " fill-opacity="1" fill-rule="nonzero"/></svg>